<?xml version="1.0" encoding="utf-8"?>
<!-- Generator: Adobe Illustrator 21.0.0, SVG Export Plug-In . SVG Version: 6.00 Build 0)  -->
<svg version="1.1" id="Layer_1" xmlns="http://www.w3.org/2000/svg" xmlns:xlink="http://www.w3.org/1999/xlink" x="0px" y="0px"
	 viewBox="0 0 200 200" style="enable-background:new 0 0 200 200;" xml:space="preserve">
<style type="text/css">
	.st0{fill:#CCA711;}
</style>
<path class="st0" d="M132.9,100l60.2-60.2c9.1-9.1,9.1-23.8,0-32.9c-9.1-9.1-23.8-9.1-32.9,0L100,67.1L39.8,6.8
	c-9.1-9.1-23.8-9.1-32.9,0c-9.1,9.1-9.1,23.8,0,32.9L67.1,100L6.8,160.2c-9.1,9.1-9.1,23.8,0,32.9c4.5,4.5,10.5,6.8,16.5,6.8
	s11.9-2.3,16.5-6.8l60.2-60.2l60.2,60.2c4.5,4.5,10.5,6.8,16.5,6.8c6,0,11.9-2.3,16.5-6.8c9.1-9.1,9.1-23.8,0-32.9L132.9,100z"/>
</svg>
