<svg id="Layer_1" data-name="Layer 1" xmlns="http://www.w3.org/2000/svg" viewBox="0 0 200 200"><title>pool-table-black</title><path d="M100,0A100,100,0,1,0,200,100,100,100,0,0,0,100,0Zm0,151.89A51.88,51.88,0,1,1,151.88,100,51.88,51.88,0,0,1,100,151.89Z"/><path d="M112.28,99.11v-.32c8.75-3.58,11.06-9.52,11.06-15.88,0-12-10-20.45-24-20.45s-24,8.43-24,20.45c0,6.36,2.35,12.3,11.09,15.88v.32C77.61,102.58,73,108.62,73,117.34c0,9.76,8.16,20.23,26.3,20.23s26.36-10.47,26.36-20.23C125.63,108.62,121,102.58,112.28,99.11ZM99.27,74c5.45.24,8.27,3.94,8.27,8.38s-3.12,9.14-8.27,9.14S91,86.68,91,82.35,93.82,74.2,99.27,74Zm0,51.83c-5.86,0-9.49-5.12-9.39-10.13,0-5.26,3.31-10.69,9.39-10.69s9.39,5.43,9.39,10.69C108.77,120.68,105.14,125.8,99.27,125.8Z"/></svg>