<?xml version="1.0" encoding="utf-8"?>
<!-- Generator: Adobe Illustrator 21.0.0, SVG Export Plug-In . SVG Version: 6.00 Build 0)  -->
<svg version="1.1" id="Layer_1" xmlns="http://www.w3.org/2000/svg" xmlns:xlink="http://www.w3.org/1999/xlink" x="0px" y="0px"
	 viewBox="0 0 200 200" style="enable-background:new 0 0 200 200;" xml:space="preserve">
<style type="text/css">
	.st0{fill:#FFFF00;}
</style>
<title>pool-table-black</title>
<path class="st0" d="M100,0C44.8,0,0,44.8,0,100s44.8,100,100,100s100-44.8,100-100S155.2,0,100,0z M100,151.9
	c-28.7,0-51.9-23.2-51.9-51.9c0-28.7,23.2-51.9,51.9-51.9c28.6,0,51.9,23.2,51.9,51.9C151.9,128.7,128.7,151.9,100,151.9
	C100,151.9,100,151.9,100,151.9z"/>
<path class="st0" d="M112.3,99.1v-0.3c8.8-3.6,11.1-9.5,11.1-15.9c0-12-10-20.5-24-20.5s-24,8.4-24,20.5c0,6.4,2.3,12.3,11.1,15.9
	v0.3c-8.8,3.5-13.4,9.5-13.4,18.2c0,9.8,8.2,20.2,26.3,20.2s26.4-10.5,26.4-20.2C125.6,108.6,121,102.6,112.3,99.1z M99.3,74
	c5.4,0.2,8.3,3.9,8.3,8.4s-3.1,9.1-8.3,9.1S91,86.7,91,82.3S93.8,74.2,99.3,74z M99.3,125.8c-5.9,0-9.5-5.1-9.4-10.1
	c0-5.3,3.3-10.7,9.4-10.7s9.4,5.4,9.4,10.7C108.8,120.7,105.1,125.8,99.3,125.8L99.3,125.8z"/>
</svg>
