<?xml version="1.0" encoding="utf-8"?>
<!-- Generator: Adobe Illustrator 21.0.0, SVG Export Plug-In . SVG Version: 6.00 Build 0)  -->
<svg version="1.1" id="Capa_1" xmlns="http://www.w3.org/2000/svg" xmlns:xlink="http://www.w3.org/1999/xlink" x="0px" y="0px"
	 viewBox="0 0 297 297" style="enable-background:new 0 0 297 297;" xml:space="preserve">
<style type="text/css">
	.st0{fill:#FFFF00;}
</style>
<g>
	<circle class="st0" cx="263.2" cy="260.8" r="33.8"/>
	<path class="st0" d="M242.2,38C194.7-9.5,117.5-9.5,70,38C58.3,49.6,49.2,63.4,43.2,78.5l158.6,158.6c15-6.1,28.8-15.2,40.5-26.8
		C289.7,162.8,289.7,85.5,242.2,38z"/>
	<path class="st0" d="M34.7,114.5c-2.1,26.8,4.7,53.5,19.2,75.9L1.8,242.5c-2.4,2.4-2.4,6.3,0,8.7l27.3,27.3
		c1.2,1.2,2.8,1.8,4.4,1.8c1.6,0,3.2-0.6,4.4-1.8l52.1-52.1c22.4,14.5,49.1,21.3,75.9,19.2c4.6-0.4,9.2-1,13.7-1.9L36.5,100.9
		C35.6,105.4,35,109.9,34.7,114.5z"/>
</g>
</svg>
