<?xml version="1.0" encoding="utf-8"?>
<!-- Generator: Adobe Illustrator 21.0.0, SVG Export Plug-In . SVG Version: 6.00 Build 0)  -->
<svg version="1.1" id="Layer_1" xmlns="http://www.w3.org/2000/svg" xmlns:xlink="http://www.w3.org/1999/xlink" x="0px" y="0px"
	 viewBox="0 0 200 200" style="enable-background:new 0 0 200 200;" xml:space="preserve">
<style type="text/css">
	.st0{fill:#FFFFFF;}
</style>
<g>
	<path class="st0" d="M100,51c37,0,67.2,30.1,67.2,67.2S137,185.4,100,185.4s-67.2-30.1-67.2-67.2S63,51,100,51 M100,36.4
		c-45.2,0-81.8,36.6-81.8,81.8S54.8,200,100,200c45.2,0,81.8-36.6,81.8-81.8S145.2,36.4,100,36.4L100,36.4z"/>
	<g>
		<path class="st0" d="M113.4,118.2c0-7.4-13.4-58.3-13.4-58.3s-13.4,50.9-13.4,58.3c0,7.4,6,13.4,13.4,13.4
			C107.4,131.6,113.4,125.6,113.4,118.2z"/>
	</g>
	<g>
		<g>
			<path class="st0" d="M154.1,50.1l10.1-17.5l-22.4-12.9l-10.1,17.5C139.8,40.4,147.3,44.7,154.1,50.1z"/>
		</g>
		<g>
			<path class="st0" d="M87.2,32.2c4.2-0.6,8.4-0.9,12.8-0.9c4.3,0,8.6,0.3,12.8,0.9v-5l6.5-4.9V0h-6.5H87.2h-6.5v22.2l6.5,4.9V32.2
				z"/>
		</g>
		<g>
			<path class="st0" d="M68.4,37.2L58.3,19.7L35.9,32.5l10.1,17.5C52.7,44.7,60.2,40.4,68.4,37.2z"/>
		</g>
	</g>
</g>
</svg>
