<?xml version="1.0" encoding="utf-8"?>
<!-- Generator: Adobe Illustrator 21.0.0, SVG Export Plug-In . SVG Version: 6.00 Build 0)  -->
<svg version="1.1" id="Layer_1" xmlns="http://www.w3.org/2000/svg" xmlns:xlink="http://www.w3.org/1999/xlink" x="0px" y="0px"
	 viewBox="0 0 1561.8 953" style="enable-background:new 0 0 1561.8 953;" xml:space="preserve">
<style type="text/css">
	.st0{opacity:0.3;fill:#25292C;}
	.st1{fill:#FFFFFF;}
	.st2{clip-path:url(#SVGID_3_);}
	.st3{fill:#4BB223;}
	.st4{fill:#25292C;}
</style>
<g>
	<path class="st0" d="M1561.8,70.7l-21.6,11.7c4.8-7,7.6-15.5,7.6-24.6c0-24.2-19.7-43.9-43.9-43.9c-9.7,0-18.7,3.2-26,8.6L1490.1,0
		H70.7l11.7,21.5c-7-4.7-15.4-7.5-24.5-7.5C33.7,14,14,33.7,14,57.9c0,9.1,2.8,17.5,7.5,24.5L0,70.7v811.6l21.5-11.7
		c-4.7,7-7.5,15.4-7.5,24.5c0,24.2,19.7,43.9,43.9,43.9c9,0,17.5-2.8,24.5-7.5L70.7,953h1419.4l-12.3-22.6
		c7.3,5.4,16.3,8.6,26.1,8.6c24.2,0,43.9-19.7,43.9-43.9c0-9-2.8-17.5-7.5-24.5l21.5,11.7V70.7z M1503.9,851.2
		c-24.2,0-43.9,19.7-43.9,43.9c0,0.9,0,1.8,0.1,2.6l-14-25.7H818.2c-7.8-12.5-21.6-20.8-37.3-20.8s-29.6,8.3-37.3,20.8H114.7
		l-12.9,23.8c0-0.2,0-0.5,0-0.7c0-24.2-19.7-43.9-43.9-43.9c-0.2,0-0.5,0-0.7,0L81,838.3V114.7l-24-13c0.3,0,0.6,0,0.9,0
		c24.2,0,43.9-19.6,43.9-43.8c0-0.2,0-0.5,0-0.7L114.7,81h629c7.8,12.4,21.6,20.7,37.2,20.7c15.7,0,29.5-8.3,37.3-20.7h627.9
		l14-25.7c0,0.8-0.1,1.7-0.1,2.5c0,24.2,19.7,43.9,43.9,43.9c0.3,0,0.6,0,0.9,0l-24,13v723.6l23.8,12.9
		C1504.4,851.2,1504.1,851.2,1503.9,851.2z"/>
	<g>
		<g>
			<path id="SVGID_1_" class="st1" d="M1496.9,0H64.9C29.1,0,0,29.1,0,64.9V888c0,35.9,29.1,65,64.9,65h1431.9
				c35.9,0,64.9-29.1,64.9-64.9V64.9C1561.8,29.1,1532.7,0,1496.9,0z M1504.8,896H57V57h1447.8V896z"/>
		</g>
		<g>
			<defs>
				<path id="SVGID_2_" d="M1496.9,0H64.9C29.1,0,0,29.1,0,64.9V888c0,35.9,29.1,65,64.9,65h1431.9c35.9,0,64.9-29.1,64.9-64.9V64.9
					C1561.8,29.1,1532.7,0,1496.9,0z M1504.8,896H57V57h1447.8V896z"/>
			</defs>
			<clipPath id="SVGID_3_">
				<use xlink:href="#SVGID_2_"  style="overflow:visible;"/>
			</clipPath>
			<g class="st2">
				<rect x="70.6" y="0" class="st3" width="1420.5" height="70.7"/>
				<rect x="70.6" y="882.2" class="st3" width="1420.5" height="70.7"/>
				<rect x="1491.1" y="70.7" class="st3" width="70.7" height="811.6"/>
				<rect x="0" y="70.7" class="st3" width="70.7" height="811.6"/>
			</g>
		</g>
	</g>
</g>
<g>
	<circle class="st4" cx="57.9" cy="57.9" r="35.9"/>
</g>
<g>
	<circle class="st4" cx="57.9" cy="895.1" r="35.9"/>
</g>
<g>
	<circle class="st4" cx="1503.9" cy="895.1" r="35.9"/>
</g>
<g>
	<circle class="st4" cx="1503.9" cy="57.9" r="35.9"/>
</g>
<g>
	<circle class="st4" cx="780.9" cy="895.1" r="35.9"/>
</g>
<g>
	<circle class="st4" cx="780.9" cy="57.9" r="35.9"/>
</g>
<g>
	<circle class="st1" cx="225.1" cy="28.5" r="5.8"/>
	<circle class="st1" cx="410.3" cy="28.5" r="5.8"/>
	<circle class="st1" cx="595.6" cy="28.5" r="5.8"/>
	<circle class="st1" cx="966.2" cy="28.5" r="5.8"/>
	<circle class="st1" cx="1151.4" cy="28.5" r="5.8"/>
	<circle class="st1" cx="1336.7" cy="28.5" r="5.8"/>
</g>
<g>
	<circle class="st1" cx="28.5" cy="239.5" r="5.8"/>
	<circle class="st1" cx="28.5" cy="476.5" r="5.8"/>
	<circle class="st1" cx="28.5" cy="713.5" r="5.8"/>
</g>
<g>
	<circle class="st1" cx="1533.3" cy="239.5" r="5.8"/>
	<circle class="st1" cx="1533.3" cy="476.5" r="5.8"/>
	<circle class="st1" cx="1533.3" cy="713.5" r="5.8"/>
</g>
<g>
	<circle class="st1" cx="225.1" cy="924.5" r="5.8"/>
	<circle class="st1" cx="410.3" cy="924.5" r="5.8"/>
	<circle class="st1" cx="595.6" cy="924.5" r="5.8"/>
	<circle class="st1" cx="966.2" cy="924.5" r="5.8"/>
	<circle class="st1" cx="1151.4" cy="924.5" r="5.8"/>
	<circle class="st1" cx="1336.7" cy="924.5" r="5.8"/>
</g>
</svg>
