<?xml version="1.0" encoding="utf-8"?>
<!-- Generator: Adobe Illustrator 21.0.0, SVG Export Plug-In . SVG Version: 6.00 Build 0)  -->
<svg version="1.1" id="Layer_1" xmlns="http://www.w3.org/2000/svg" xmlns:xlink="http://www.w3.org/1999/xlink" x="0px" y="0px"
	 viewBox="0 0 1244.1 640" style="enable-background:new 0 0 1244.1 640;" xml:space="preserve">
<style type="text/css">
	.st0{opacity:0.2;fill:#FFFFFF;}
</style>
<polyline class="st0" points="113.2,0 110.2,0 110.2,640 113.2,640 113.2,0 "/>
<polyline class="st0" points="224.8,0 221.8,0 221.8,640 224.8,640 224.8,0 "/>
<polyline class="st0" points="336.5,0 333.5,0 333.5,640 336.5,640 336.5,0 "/>
<polyline class="st0" points="909.1,0 906.1,0 906.1,640 909.1,640 909.1,0 "/>
<polyline class="st0" points="1020.8,0 1017.8,0 1017.8,640 1020.8,640 1020.8,0 "/>
<polyline class="st0" points="1132.5,0 1129.5,0 1129.5,640 1132.5,640 1132.5,0 "/>
<polyline class="st0" points="626.3,0 616.3,0 616.3,640 626.3,640 626.3,0 "/>
<polygon class="st0" points="954,317.4 976.6,317.4 976.6,321.2 957.4,321.2 957.4,326 954,326 "/>
<path class="st0" d="M1071.8,316.3c-1.8,0-2.9,1.5-2.9,4c0,2,1.1,4.4,2.8,6.4l-2.9,1.6c-2-2.5-3.2-5.5-3.2-8.4
	c0-4.4,2.2-7.4,5.7-7.4c2.3,0,4.8,1.8,7.4,4.3l6.3,6.2v-11.6h3.4V328h-2.8l-8.9-8.6C1074.9,317.4,1073.1,316.3,1071.8,316.3z"/>
<path class="st0" d="M1193,311.7c4.2,0,7.2,3.4,7.2,8.9c0,3-1,6.1-2.5,8.2l-3.1-1.6c1.5-1.8,2.4-4.1,2.4-6.4c0-3.4-1.6-5.4-3.9-5.4
	c-2.5,0-3.7,2-3.7,5.5v3.3h-2.2l-6.4-6.6v10.1h-3.4v-14.9h2.4l7,7.3l0.1-1.3C1187.2,314.5,1189.4,311.7,1193,311.7z"/>
<polygon class="st0" points="288.6,322.6 266,322.6 266,318.8 285.2,318.8 285.2,314 288.6,314 "/>
<path class="st0" d="M170.9,323.7c1.8,0,2.9-1.5,2.9-4c0-2-1.1-4.4-2.8-6.4l2.9-1.6c2,2.5,3.2,5.5,3.2,8.4c0,4.4-2.2,7.4-5.7,7.4
	c-2.3,0-4.8-1.8-7.4-4.3l-6.3-6.2v11.6h-3.4V312h2.8l8.9,8.6C167.8,322.6,169.6,323.7,170.9,323.7z"/>
<path class="st0" d="M49.7,328.3c-4.2,0-7.2-3.4-7.2-8.9c0-3,1-6.1,2.5-8.2l3.1,1.6c-1.5,1.8-2.4,4.1-2.4,6.4c0,3.4,1.6,5.4,3.9,5.4
	c2.5,0,3.7-2,3.7-5.5v-3.3h2.2l6.4,6.6v-10.1h3.4v14.9h-2.4l-7-7.3l-0.1,1.3C55.4,325.5,53.3,328.3,49.7,328.3z"/>
</svg>
