<?xml version="1.0" encoding="utf-8"?>
<!-- Generator: Adobe Illustrator 21.0.0, SVG Export Plug-In . SVG Version: 6.00 Build 0)  -->
<svg version="1.1" id="Layer_1" xmlns="http://www.w3.org/2000/svg" xmlns:xlink="http://www.w3.org/1999/xlink" x="0px" y="0px"
	 viewBox="0 0 83.5 946.9" style="enable-background:new 0 0 83.5 946.9;" xml:space="preserve">
<style type="text/css">
	.st0{opacity:0.3;}
	.st1{opacity:0.7;fill:#FFFFFF;enable-background:new    ;}
</style>
<title>tennis-net</title>
<g>
	<g class="st0">
		<polygon points="13.8,10.7 13.8,936.2 69.3,904.3 69.3,42.6 		"/>
	</g>
	<polygon class="st1" points="16.7,19.8 8.7,15.2 8.7,931.6 16.7,927 	"/>
	<path d="M73.8,894.2l-11.3,6.5V887l5.2-2.6c0.8-0.3,1.1-1.2,0.8-2c-0.3-0.8-1.2-1.1-2-0.8c0,0-0.1,0-0.1,0.1l-3.8,2v-13.1l5.2-2.5
		c0.7-0.4,1.1-1.3,0.7-2c-0.4-0.7-1.3-1.1-2-0.7l-3.8,1.9v-13.1l5.1-2.4c0.8-0.3,1.2-1.1,0.9-1.9c-0.3-0.8-1.1-1.2-1.9-0.9
		c-0.1,0-0.2,0.1-0.3,0.1l-3.9,1.8v-13.2l5.1-2.3c0.8-0.3,1.1-1.2,0.8-2s-1.2-1.1-2-0.8c0,0,0,0-0.1,0l-3.9,1.7v-13.2l5.1-2.2
		c0.8-0.3,1.1-1.2,0.8-2c-0.3-0.8-1.2-1.1-2-0.8l-3.9,1.7v-13.2l5.1-2c0.8-0.3,1.1-1.2,0.8-2c-0.3-0.8-1.2-1.1-2-0.8l-3.9,1.6v-13.2
		l5-1.9c0.8-0.3,1.2-1.2,0.9-1.9s-1.2-1.2-1.9-0.9l-4,1.5v-13.2l5-1.8c0.8-0.2,1.3-1,1-1.8c-0.2-0.8-1-1.3-1.8-1
		c-0.1,0-0.1,0-0.2,0.1l-4,1.5v-13.3l5-1.7c0.8-0.3,1.2-1.1,0.9-1.9c-0.3-0.8-1.1-1.2-1.9-0.9l-4,1.4v-13.3l5-1.6
		c0.8-0.3,1.2-1.1,1-1.9c-0.3-0.8-1.1-1.2-1.9-1l0,0l-4,1.3v-13.3l4.9-1.5c0.8-0.2,1.3-1,1-1.8s-1-1.3-1.8-1c0,0-0.1,0-0.1,0
		l-4.1,1.2v-13.3l4.9-1.4c0.8-0.2,1.3-1.1,1-1.8c-0.2-0.8-1.1-1.3-1.9-1l-4.1,1.2v-13.3l4.9-1.3c0.8-0.2,1.2-1.1,1-1.9
		c-0.2-0.8-1-1.2-1.8-1l-4.1,1.1v-13.4l4.9-1.2c0.8-0.2,1.3-1,1.1-1.8s-1-1.3-1.8-1.1l-4.2,1v-13.4l4.8-1c0.8-0.2,1.3-1,1.1-1.8
		c-0.2-0.8-1-1.3-1.7-1.1l-4.2,0.9V640l4.8-1c0.8-0.2,1.3-1,1.1-1.8c-0.2-0.8-0.9-1.2-1.7-1.1l-4.2,0.8v-13.4l4.8-0.8
		c0.8-0.1,1.4-0.9,1.2-1.8c-0.1-0.8-0.9-1.4-1.8-1.2l0,0l-4.2,0.8v-13.4l4.7-0.7c0.8-0.1,1.4-0.9,1.3-1.7c-0.1-0.8-0.9-1.4-1.7-1.3
		l-4.3,0.7v-13.4l4.7-0.6c0.8-0.1,1.4-0.9,1.3-1.7c-0.1-0.8-0.9-1.4-1.7-1.3l0,0l-4.3,0.6v-13.4l4.7-0.5c0.8-0.1,1.4-0.8,1.3-1.7
		s-0.8-1.4-1.7-1.3l-4.3,0.5v-13.4l4.6-0.4c0.8-0.1,1.4-0.8,1.4-1.6s-0.8-1.4-1.6-1.4l-4.4,0.4v-13.4l4.6-0.3
		c0.8-0.1,1.5-0.8,1.4-1.6s-0.8-1.5-1.6-1.4l-4.4,0.3v-13.4l4.6-0.2c0.8,0,1.5-0.8,1.4-1.6s-0.8-1.5-1.6-1.4l-4.4,0.2v-13.5l4.6-0.1
		c0.8,0,1.5-0.7,1.5-1.5c0-0.8-0.7-1.5-1.5-1.5l-4.5,0.1v-13.5H67c0.8,0,1.5-0.7,1.5-1.5c0,0,0,0,0,0c0-0.8-0.6-1.5-1.4-1.5
		c0,0,0,0-0.1,0h-4.5v-13.4H67l0,0c0.8,0,1.5-0.7,1.5-1.5s-0.7-1.5-1.5-1.5h-4.5v-13.5l4.4,0.1l0,0c0.8,0,1.5-0.7,1.5-1.5
		s-0.7-1.5-1.5-1.5l-4.5-0.1v-13.5l4.4,0.2H67c0.8,0,1.5-0.6,1.5-1.5s-0.6-1.5-1.5-1.5l-4.6-0.2V426l4.4,0.3H67
		c0.8,0,1.5-0.6,1.6-1.4s-0.6-1.5-1.4-1.6l0,0l-4.6-0.3v-13.4l4.4,0.4H67c0.8,0,1.5-0.6,1.6-1.4S68,407,67.1,407l-4.6-0.4v-13.4
		l4.3,0.5H67c0.8,0,1.5-0.6,1.6-1.4s-0.6-1.5-1.4-1.6l-4.7-0.5v-13.4l4.3,0.6H67c0.8,0.1,1.5-0.6,1.6-1.4s-0.6-1.5-1.4-1.6l-4.7-0.6
		v-13.4l4.3,0.7H67c0.8,0.1,1.6-0.6,1.6-1.4c0.1-0.8-0.6-1.6-1.4-1.6l0,0l-4.7-0.7v-13.4l4.2,0.8H67c0.8,0.1,1.6-0.5,1.6-1.4
		c0.1-0.8-0.5-1.6-1.4-1.6l-4.8-0.8v-13.4l4.2,0.8H67c0.8,0.1,1.6-0.5,1.6-1.4c0.1-0.8-0.5-1.6-1.4-1.6l-4.8-0.9v-13.3l4.2,0.9
		c0.8,0.2,1.6-0.3,1.8-1.1s-0.3-1.6-1.1-1.8c0,0,0,0-0.1,0l-4.8-1v-13.4l4.2,1c0.8,0.2,1.6-0.3,1.8-1.1s-0.3-1.6-1.1-1.8l-4.8-1.2
		v-13.4l4.1,1.1c0.8,0.2,1.6-0.4,1.8-1.2c0.2-0.7-0.3-1.5-1-1.7l-4.9-1.3v-13.4l4.1,1.1c0.8,0.2,1.6-0.2,1.9-1s-0.2-1.6-1-1.9l0,0
		l-4.9-1.4V245l4.1,1.2c0.8,0.2,1.6-0.3,1.8-1.1c0.2-0.7-0.2-1.5-1-1.8l-4.9-1.5v-13.3l4,1.3c0.8,0.3,1.6-0.2,1.9-1s-0.2-1.6-1-1.9
		l-5-1.6v-13.3l4,1.4c0.8,0.3,1.6-0.1,1.9-0.9s-0.1-1.6-0.9-1.9l-5-1.7v-13.3l4,1.4c0.8,0.2,1.6-0.3,1.8-1c0.2-0.7-0.2-1.5-0.8-1.8
		l-5-1.8v-13.3l4,1.5c0.8,0.3,1.6-0.2,1.9-0.9c0.2-0.7-0.1-1.5-0.8-1.9l-5-1.9v-13.2l3.9,1.6c0.8,0.3,1.6-0.1,2-0.8
		c0.3-0.8-0.1-1.6-0.8-2l-5.1-2v-13.2l3.9,1.6c0.7,0.4,1.6,0,2-0.7c0.4-0.7,0-1.6-0.7-2c0,0-0.1,0-0.1,0l-5.1-2.2v-13.2l3.9,1.7
		c0.7,0.4,1.6,0,2-0.7s0-1.6-0.7-2c0,0,0,0-0.1,0l-5.1-2.3v-13.1l3.9,1.8c0.8,0.4,1.6,0,2-0.7c0.4-0.8,0-1.6-0.7-2l-5.1-2.4V97
		l3.8,1.9c0.7,0.4,1.6,0.1,2-0.7s0.1-1.6-0.7-2l-5.2-2.5V80.6l3.8,1.9c0.7,0.4,1.6,0.2,2-0.6c0.4-0.7,0.2-1.6-0.6-2
		c0,0-0.1,0-0.1-0.1l-5.2-2.6V64.1l3.8,2c0.7,0.4,1.6,0.2,2.1-0.5c0.4-0.7,0.2-1.6-0.5-2.1c0,0-0.1,0-0.1-0.1l-5.2-2.8V46.2
		l11.3,6.5c3.1,1.8,7.1,0.7,8.9-2.4c1.8-3.1,0.7-7.1-2.4-8.9L9.7,0.9C6.6-0.9,2.6,0.1,0.9,3.3s-0.7,7.1,2.4,8.9l16.2,9.3V38
		l-2.8-1.5l0,0v3.4l2.8,1.5v14L16.7,54l0,0v3.4l2.8,1.4v14l-2.8-1.4v3.3l2.8,1.3v14l-2.8-1.3V92l2.8,1.3v14.1l-2.8-1.3v3.3l2.8,1.3
		v14.1l-2.8-1.2v3.3l2.8,1.2v14.1l-2.8-1.1v3.2l2.8,1.1v14.1l-2.8-1.1v3.2l2.8,1.1v14.2l-2.8-1v3.2l2.8,1v14.2l-2.8-1v3.2l2.8,1
		v14.2l-2.8-0.9v3.1l2.8,0.9V229l-2.8-0.9v3.1l2.8,0.9v14.2l-2.8-0.8v3.1l2.8,0.8v14.2l-2.8-0.7v3.1l2.8,0.7v14.3l-2.8-0.7v3.1
		l2.8,0.7v14.3l-2.8-0.6v3.1l2.8,0.6v14.3l-2.8-0.6v3.1l2.8,0.6v14.3l-2.8-0.5v3l2.8,0.5v14.3l-2.8-0.4v3l2.8,0.4v14.3l-2.8-0.4v3
		l2.8,0.4v14.4l-2.8-0.3v3l2.8,0.3v14.3l-2.8-0.3v3l2.8,0.3v14.3l-2.8-0.2v3l2.8,0.2v14.4l-2.8-0.1v3l2.8,0.1v14.4l-2.8-0.1v3
		l2.8,0.1V472h-2.8v3h2.8v14.4h-2.8v3h2.8v14.4l-2.8,0.1v3l2.8-0.1V524l-2.8,0.2v3l2.8-0.2v14.3l-2.8,0.2v3l2.8-0.2v14.3l-2.8,0.3v3
		l2.8-0.3V576l-2.8,0.3v3l2.8-0.3v14.3l-2.8,0.4v3l2.8-0.4v14.3l-2.8,0.4v3l2.8-0.4V628l-2.8,0.5v3l2.8-0.5v14.3l-2.8,0.6v3.1
		l2.8-0.6v14.3l-2.8,0.6v3.1l2.8-0.6V680l-2.8,0.7v3.1l2.8-0.7v14.3l-2.8,0.7v3.1l2.8-0.7v14.2l-2.8,0.8v3.1l2.8-0.8V732l-2.8,0.8
		v3.1l2.8-0.8v14.2l-2.8,0.9v3.2l2.8-0.9v14.2l-2.8,1v3.3l2.8-1v14.2l-2.8,1v3.2l2.8-1v14.2l-2.8,1.1v3.2l2.8-1.1v14.1l-2.8,1.1v3.2
		l2.8-1.2v14.1l-2.8,1.2v3.3l2.8-1.2v14.1l-2.8,1.3v3.3l2.8-1.3v14l-2.8,1.3v3.3l2.8-1.3v14l-2.8,1.4v3.4l2.8-1.4v14l-2.8,1.4v3.4
		l0,0l2.8-1.4v16.5l-16.2,9.3c-3.2,1.7-4.4,5.6-2.7,8.8c1.7,3.2,5.6,4.4,8.8,2.7c0.1-0.1,0.3-0.2,0.4-0.2l70.5-40.5
		c3.1-1.8,4.2-5.8,2.4-8.9C80.8,893.5,76.9,892.4,73.8,894.2L73.8,894.2z M29.5,63.8v13.8l-7-3.4V60.2L29.5,63.8z M22.5,56.9V43
		l7,3.7v13.7L22.5,56.9z M29.5,80.9v13.8l-7-3.3v-14L29.5,80.9z M29.5,98v13.9l-7-3.1v-14L29.5,98z M29.5,115.2V129l-7-3v-14
		L29.5,115.2z M29.5,132.3v13.9l-7-2.8v-14L29.5,132.3z M29.5,149.4v13.9l-7-2.7v-14.1L29.5,149.4z M29.5,166.6v13.9l-7-2.5v-14.1
		L29.5,166.6z M29.5,183.7v14l-7-2.4v-14.1L29.5,183.7z M29.5,200.8v14l-7-2.2v-14.1L29.5,200.8z M29.5,218v14l-7-2.1v-14.1
		L29.5,218z M29.5,235.1v14l-7-2V233L29.5,235.1z M29.5,252.2v14l-7-1.8v-14.1L29.5,252.2z M29.5,269.4v14l-7-1.7v-14.2L29.5,269.4z
		 M29.5,286.5v14.1l-7-1.5v-14.2L29.5,286.5z M29.5,303.7v14.1l-7-1.4v-14.2L29.5,303.7z M29.5,320.8v14.1l-7-1.2v-14.2L29.5,320.8z
		 M29.5,337.9V352l-7-1.1v-14.2L29.5,337.9z M29.5,355.1v14.1l-7-0.9V354L29.5,355.1z M29.5,372.2v14.1l-7-0.8v-14.3L29.5,372.2z
		 M29.5,389.4v14.1l-7-0.6v-14.3L29.5,389.4z M29.5,406.5v14.1l-7-0.5v-14.3L29.5,406.5z M29.5,423.6v14.1l-7-0.4v-14.3L29.5,423.6z
		 M29.5,440.8v14.1l-7-0.2v-14.3L29.5,440.8z M29.5,457.9v14.1l-7-0.1v-14.3L29.5,457.9z M29.5,475.1v14.1l-7,0.1V475L29.5,475.1z
		 M29.5,492.2v14.1l-7,0.2v-14.3L29.5,492.2z M29.5,509.3v14.2l-7,0.4v-14.3L29.5,509.3z M29.5,526.5v14.1l-7,0.5v-14.3L29.5,526.5z
		 M29.5,543.6v14.1l-7,0.7v-14.3L29.5,543.6z M29.5,560.8v14.1l-7,0.8v-14.3L29.5,560.8z M29.5,577.9v14.1l-7,1v-14.3L29.5,577.9z
		 M29.5,595.1v14.1l-7,1.1V596L29.5,595.1z M29.5,612.2v14.1l-7,1.2v-14.3L29.5,612.2z M29.5,629.4v14.1l-7,1.4v-14.2L29.5,629.4z
		 M29.5,646.5v14.1l-7,1.5v-14.2L29.5,646.5z M29.5,663.7v14.1l-7,1.7v-14.2L29.5,663.7z M29.5,680.8v14l-7,1.8v-14.2L29.5,680.8z
		 M29.5,698v14l-7,2v-14.2L29.5,698z M29.5,715.1v14l-7,2.1v-14.1L29.5,715.1z M29.5,732.3v14l-7,2.3v-14.1L29.5,732.3z M29.5,749.4
		v14l-7,2.4v-14.1L29.5,749.4z M29.5,766.6v14l-7,2.5V769L29.5,766.6z M29.5,783.7v14l-7,2.7v-14.1L29.5,783.7z M29.5,800.9v13.9
		l-7,2.8v-14L29.5,800.9z M29.5,818.1V832l-7,3v-14L29.5,818.1z M29.5,835.2v13.9l-7,3.1v-14L29.5,835.2z M29.5,852.4v13.8l-7,3.3
		v-14L29.5,852.4z M29.5,869.5v13.8l-7,3.4v-14L29.5,869.5z M29.5,886.7v13.8l-7,3.6v-13.9L29.5,886.7z M52.5,872.1v-13.3l7-3.3
		v13.2L52.5,872.1z M59.5,872v13.2l-7,3.6v-13.3L59.5,872z M52.5,855.5v-13.4l7-3.1v13.2L52.5,855.5z M52.5,838.8v-13.4l7-3v13.2
		L52.5,838.8z M52.5,822.2v-13.4l7-2.8v13.3L52.5,822.2z M52.5,805.5v-13.5l7-2.7v13.3L52.5,805.5z M52.5,788.9v-13.5l7-2.5v13.3
		L52.5,788.9z M52.5,772.2v-13.5l7-2.4v13.3L52.5,772.2z M52.5,755.5V742l7-2.3v13.4L52.5,755.5z M52.5,738.9v-13.5l7-2.1v13.4
		L52.5,738.9z M52.5,722.2v-13.5l7-2v13.4L52.5,722.2z M52.5,705.6V692l7-1.8v13.4L52.5,705.6z M52.5,688.9v-13.6l7-1.7v13.4
		L52.5,688.9z M52.5,672.2v-13.6l7-1.5v13.4L52.5,672.2z M52.5,655.6V642l7-1.4v13.5L52.5,655.6z M52.5,638.9v-13.6l7-1.2v13.5
		L52.5,638.9z M52.5,622.3v-13.6l7-1.1V621L52.5,622.3z M52.5,605.6V592l7-1v13.5L52.5,605.6z M52.5,588.9v-13.6l7-0.8V588
		L52.5,588.9z M52.5,572.3v-13.7l7-0.7v13.5L52.5,572.3z M52.5,555.6V542l7-0.5V555L52.5,555.6z M52.5,539v-13.7l7-0.4v13.5
		L52.5,539z M52.5,522.3v-13.7l7-0.2v13.5L52.5,522.3z M52.5,505.6V492l7-0.1v13.5L52.5,505.6z M52.5,489v-13.7l7,0.1v13.5L52.5,489
		z M52.5,472.3v-13.7l7,0.2v13.5L52.5,472.3z M52.5,455.6V442l7,0.4v13.5L52.5,455.6z M52.5,439v-13.7l7,0.5v13.5L52.5,439z
		 M52.5,422.3v-13.6l7,0.6v13.5L52.5,422.3z M52.5,405.6V392l7,0.8v13.5L52.5,405.6z M52.5,388.9v-13.6l7,0.9v13.5L52.5,388.9z
		 M52.5,372.3v-13.6l7,1.1v13.5L52.5,372.3z M52.5,355.6V342l7,1.2v13.5L52.5,355.6z M52.5,338.9v-13.6l7,1.4v13.5L52.5,338.9z
		 M52.5,322.3v-13.6l7,1.5v13.5L52.5,322.3z M52.5,305.6V292l7,1.7v13.4L52.5,305.6z M52.5,288.9v-13.6l7,1.8v13.4L52.5,288.9z
		 M52.5,272.3v-13.6l7,2v13.4L52.5,272.3z M52.5,255.6V242l7,2.1v13.4L52.5,255.6z M52.5,238.9v-13.5l7,2.2V241L52.5,238.9z
		 M52.5,222.2v-13.5l7,2.4v13.4L52.5,222.2z M52.5,205.5v-13.5l7,2.5v13.3L52.5,205.5z M52.5,188.9v-13.5l7,2.7v13.3L52.5,188.9z
		 M52.5,172.2v-13.4l7,2.8v13.3L52.5,172.2z M52.5,155.5v-13.4l7,3v13.3L52.5,155.5z M52.5,138.8v-13.4l7,3.1v13.2L52.5,138.8z
		 M52.5,122.1v-13.4l7,3.3v13.2L52.5,122.1z M52.5,105.5V92.1l7,3.4v13.2L52.5,105.5z M52.5,88.8V75.5l7,3.6v13.2L52.5,88.8z
		 M52.5,72.1V58.8l7,3.7v13.1L52.5,72.1z M39.5,68.9v13.6l-7-3.4V65.3L39.5,68.9z M32.5,61.9V48.2l7,3.7v13.6L32.5,61.9z M39.5,85.8
		v13.6l-7-3.3V82.4L39.5,85.8z M39.5,102.7v13.6l-7-3.1V99.4L39.5,102.7z M39.5,119.6v13.7l-7-3v-13.8L39.5,119.6z M39.5,136.6v13.7
		l-7-2.8v-13.8L39.5,136.6z M39.5,153.5v13.7l-7-2.7v-13.8L39.5,153.5z M39.5,170.4v13.7l-7-2.5v-13.9L39.5,170.4z M39.5,187.3v13.8
		l-7-2.4v-13.9L39.5,187.3z M39.5,204.3V218l-7-2.2v-13.9L39.5,204.3z M39.5,221.2V235l-7-2.1v-13.9L39.5,221.2z M39.5,238.1v13.8
		l-7-2V236L39.5,238.1z M39.5,255v13.8l-7-1.8v-14L39.5,255z M39.5,272v13.8l-7-1.7v-14L39.5,272z M39.5,288.9v13.9l-7-1.5v-14
		L39.5,288.9z M39.5,305.8v13.9l-7-1.4v-14L39.5,305.8z M39.5,322.8v13.9l-7-1.2v-14L39.5,322.8z M39.5,339.7v13.9l-7-1.1v-14
		L39.5,339.7z M39.5,356.6v13.9l-7-0.9v-14L39.5,356.6z M39.5,373.6v13.9l-7-0.8v-14L39.5,373.6z M39.5,390.5v13.9l-7-0.6v-14.1
		L39.5,390.5z M39.5,407.4v13.9l-7-0.5v-14.1L39.5,407.4z M39.5,424.3v13.9l-7-0.4v-14.1L39.5,424.3z M39.5,441.3v13.9l-7-0.2v-14.1
		L39.5,441.3z M39.5,458.2v13.9l-7-0.1V458L39.5,458.2z M39.5,475.2v13.9l-7,0.1v-14.1L39.5,475.2z M39.5,492.1V506l-7,0.2v-14
		L39.5,492.1z M39.5,509v14l-7,0.4v-14.1L39.5,509z M39.5,526v13.9l-7,0.5v-14.1L39.5,526z M39.5,542.9v13.9l-7,0.7v-14.1
		L39.5,542.9z M39.5,559.9v13.9l-7,0.8v-14.1L39.5,559.9z M39.5,576.8v13.9l-7,1v-14.1L39.5,576.8z M39.5,593.7v13.9l-7,1.1v-14
		L39.5,593.7z M39.5,610.7v13.9l-7,1.2v-14L39.5,610.7z M39.5,627.6v13.9l-7,1.4v-14L39.5,627.6z M39.5,644.6v13.9l-7,1.5v-14
		L39.5,644.6z M39.5,661.5v13.9l-7,1.7v-14L39.5,661.5z M39.5,678.4v13.8l-7,1.8v-14L39.5,678.4z M39.5,695.4v13.8l-7,2v-14
		L39.5,695.4z M39.5,712.3v13.8l-7,2.1v-14L39.5,712.3z M39.5,729.3v13.8l-7,2.3v-13.9L39.5,729.3z M39.5,746.2V760l-7,2.4v-13.9
		L39.5,746.2z M39.5,763.2v13.8l-7,2.5v-13.9L39.5,763.2z M39.5,780.1v13.7l-7,2.7v-13.9L39.5,780.1z M39.5,797.1v13.7l-7,2.8v-13.9
		L39.5,797.1z M39.5,814v13.7l-7,3v-13.9L39.5,814z M39.5,831v13.7l-7,3.1V834L39.5,831z M39.5,847.9v13.6l-7,3.3V851L39.5,847.9z
		 M39.5,864.9v13.6l-7,3.4v-13.8L39.5,864.9z M39.5,881.8v13.6l-7,3.6v-13.7L39.5,881.8z M42.5,912.2v-15l7-3.6v14.5L42.5,912.2z
		 M42.5,877v-13.5l7-3.3v13.4L42.5,877z M49.5,876.9v13.4l-7,3.6v-13.5L49.5,876.9z M42.5,860.1v-13.6l7-3.1v13.4L42.5,860.1z
		 M42.5,843.3v-13.6l7-3v13.5L42.5,843.3z M42.5,826.4v-13.6l7-2.8v13.5L42.5,826.4z M42.5,809.6v-13.7l7-2.7v13.5L42.5,809.6z
		 M42.5,792.7V779l7-2.5V790L42.5,792.7z M42.5,775.8v-13.7l7-2.4v13.5L42.5,775.8z M42.5,759v-13.7l7-2.3v13.6L42.5,759z
		 M42.5,742.1v-13.7l7-2.1v13.6L42.5,742.1z M42.5,725.3v-13.8l7-2v13.6L42.5,725.3z M42.5,708.4v-13.8l7-1.8v13.6L42.5,708.4z
		 M42.5,691.5v-13.8l7-1.7v13.6L42.5,691.5z M42.5,674.7v-13.8l7-1.5V673L42.5,674.7z M42.5,657.8V644l7-1.4v13.7L42.5,657.8z
		 M42.5,640.9v-13.8l7-1.2v13.7L42.5,640.9z M42.5,624v-13.8l7-1.1v13.7L42.5,624z M42.5,607.2v-13.8l7-1v13.7L42.5,607.2z
		 M42.5,590.3v-13.9l7-0.8v13.7L42.5,590.3z M42.5,573.4v-13.9l7-0.7v13.7L42.5,573.4z M42.5,556.6v-13.9l7-0.5v13.7L42.5,556.6z
		 M42.5,539.7v-13.9l7-0.4v13.7L42.5,539.7z M42.5,522.8V509l7-0.2v13.7L42.5,522.8z M42.5,506v-13.9l7-0.1v13.7L42.5,506z
		 M42.5,489.1v-13.9l7,0.1V489L42.5,489.1z M42.5,472.2v-13.9l7,0.2v13.7L42.5,472.2z M42.5,455.3v-13.9l7,0.4v13.7L42.5,455.3z
		 M42.5,438.5v-13.9l7,0.5v13.7L42.5,438.5z M42.5,421.6v-13.9l7,0.6v13.7L42.5,421.6z M42.5,404.7v-13.9l7,0.8v13.7L42.5,404.7z
		 M42.5,387.8V374l7,0.9v13.7L42.5,387.8z M42.5,370.9v-13.8l7,1.1v13.7L42.5,370.9z M42.5,354.1v-13.8l7,1.2v13.7L42.5,354.1z
		 M42.5,337.2v-13.8l7,1.4v13.7L42.5,337.2z M42.5,320.3v-13.8l7,1.5v13.7L42.5,320.3z M42.5,303.4v-13.8l7,1.7v13.6L42.5,303.4z
		 M42.5,286.5v-13.8l7,1.8v13.6L42.5,286.5z M42.5,269.7v-13.8l7,2v13.6L42.5,269.7z M42.5,252.8V239l7,2.1v13.6L42.5,252.8z
		 M42.5,235.9v-13.7l7,2.2V238L42.5,235.9z M42.5,219v-13.7l7,2.4v13.6L42.5,219z M42.5,202.1v-13.7l7,2.5v13.6L42.5,202.1z
		 M42.5,185.3v-13.7l7,2.7v13.5L42.5,185.3z M42.5,168.4v-13.7l7,2.8V171L42.5,168.4z M42.5,151.5v-13.6l7,3v13.5L42.5,151.5z
		 M42.5,134.6V121l7,3.1v13.5L42.5,134.6z M42.5,117.7v-13.6l7,3.3v13.4L42.5,117.7z M42.5,100.8V87.3l7,3.4v13.4L42.5,100.8z
		 M42.5,83.9V70.4l7,3.6v13.4L42.5,83.9z M42.5,67V53.5l7,3.7v13.3L42.5,67z M42.5,50.1V34.7l7,4v15.2L42.5,50.1z M39.5,32.9v15.6
		l-7-3.7V28.9L39.5,32.9z M39.5,898.8v15.2l-7,4v-15.6L39.5,898.8z M52.5,906.5v-14.3l7-3.6v13.9L52.5,906.5z M59.5,59.1l-7-3.7v-15
		l7,4V59.1z M29.5,27.2v16.1l-7-3.7V23.2L29.5,27.2z M22.5,907.4l7-3.6v15.8l-7,4V907.4z"/>
</g>
</svg>
